<?xml version="1.0" encoding="UTF-8"?>
<svg width="320px" height="110px" viewBox="0 0 320 110" version="1.1" xmlns="http://www.w3.org/2000/svg" xmlns:xlink="http://www.w3.org/1999/xlink">
    <title>logo</title>
    <defs>
        <polygon id="path-1" points="8.0334728e-05 0.107189781 95.9715615 0.107189781 95.9715615 110 8.0334728e-05 110"></polygon>
        <polygon id="path-3" points="0.302792553 0.149174324 74.7933511 0.149174324 74.7933511 58.8362351 0.302792553 58.8362351"></polygon>
    </defs>
    <g id="Symbols" stroke="none" stroke-width="1" fill="none" fill-rule="evenodd">
        <g id="logo">
            <g id="Group-3">
                <mask id="mask-2" fill="white">
                    <use xlink:href="#path-1"></use>
                </mask>
                <g id="Clip-2"></g>
                <path d="M51.9529506,66.5715182 C55.7310929,66.0054599 69.3337707,66.0054599 72.9231264,65.0612263 C73.4898879,63.7396204 73.4898879,62.7949854 73.6786745,61.8507518 L74.2458377,59.9630876 C78.4019548,44.1018102 76.3236954,41.6476861 79.3462895,19.5553504 C79.913051,17.2899124 79.7242644,14.6467007 80.2914276,11.814 L51.9529506,66.5715182 Z M3.96700921,83.3766277 C4.15579582,83.1883431 4.3449841,83.1883431 4.53377071,83.1883431 C6.61203013,83.1883431 12.2796452,85.0760073 12.2796452,86.0198394 C12.0908586,88.0973942 12.0908586,89.7967737 12.0908586,91.8731241 C12.0908586,93.3846204 12.2796452,94.7062263 12.4688335,96.4052044 L18.70321,99.804365 C20.7814695,95.4613723 23.9928502,89.6080876 25.6935364,86.7749854 L36.65039,66.5715182 C41.7516452,56.9412993 44.9630259,49.388635 51.9529506,38.6258978 L68.2006494,12.3804599 C61.3991096,12.3804599 50.630641,14.8357883 43.0739548,17.8559708 C42.8847665,19.5553504 42.6959799,20.8777591 42.6959799,22.3880511 C42.6959799,25.408635 42.318005,27.6748759 42.318005,31.2623212 C42.318005,32.9621022 42.6959799,35.4166277 42.6959799,37.1156058 C42.6959799,39.193562 43.2627414,40.3260803 43.2627414,41.2703139 C43.2627414,42.2137445 37.5947247,44.1018102 35.5172686,44.1018102 C35.3280803,44.1018102 35.1392937,44.1018102 34.9505071,43.9131241 C32.8722477,40.7034526 30.6052017,35.794 30.6052017,28.8081971 C30.6052017,23.7092555 31.5495364,17.6676861 35.1392937,10.303708 L35.8948418,9.73724818 C39.8621724,6.149 56.676231,0.673489051 75.1905741,0.107029197 C76.7016703,0.107029197 80.6694025,0.295715328 82.9356452,0.295715328 C85.3918795,0.295715328 91.4374695,0.673489051 92.7601808,2.93972993 C92.9489674,3.31710219 92.9489674,3.8839635 92.9489674,4.82779562 C92.9489674,7.09323358 93.3265406,9.35947445 93.3265406,11.6253139 C93.3265406,12.7578321 93.3265406,13.7020657 93.137754,14.2681241 C90.3039464,32.3948394 88.6036619,49.0112628 87.2813523,65.0612263 C86.7145908,71.6696569 83.8807833,80.3552409 83.8807833,87.3422482 C83.8807833,90.174146 84.0699715,92.0618102 84.825118,94.1397664 C86.1478293,96.9716642 87.092164,97.1603504 88.4144736,97.9154964 C89.3596117,98.4815547 90.1151598,98.6706423 91.0594946,98.6706423 L94.8380385,98.6706423 C95.4052017,99.9930511 95.9715615,103.202723 95.9715615,104.523927 C95.9715615,105.846737 95.4052017,107.168343 94.4600636,108.300861 C93.137754,108.86692 88.4144736,108.678635 87.8481138,108.678635 L83.8807833,108.678635 C82.1800971,108.678635 80.8581891,108.300861 79.5350762,107.545715 C75.9457205,104.713015 74.8125992,102.447175 72.5455531,97.7264088 C71.9787916,96.9716642 71.9787916,93.573708 71.9787916,92.0618102 C71.9787916,87.7200219 72.7343397,80.543927 72.7343397,77.7120292 C72.7343397,77.3346569 72.7343397,76.9568832 72.5455531,76.7681971 C67.6334862,76.7681971 57.4317791,78.0894015 53.0868753,78.0894015 C52.5197121,78.0894015 50.8198293,78.2784891 49.3083314,78.2784891 C47.9860218,78.2784891 45.5297874,77.9011168 44.9630259,77.7120292 C40.6177205,85.0760073 36.0840301,94.7062263 31.7387247,101.692029 C28.9049172,107.923489 24.3708251,110.000241 19.8367331,110.000241 C12.6576201,110.000241 5.10093389,105.279073 4.3449841,104.523927 C4.15579582,104.523927 3.96700921,104.335241 3.58943598,103.957869 C1.51157824,100.182139 8.0334728e-05,96.2165182 8.0334728e-05,92.6282701 C8.0334728e-05,91.3066642 0.188866946,90.3632336 0.755628452,89.419 L3.96700921,83.3766277 Z" id="Fill-1" fill="#043D47" mask="url(#mask-2)"></path>
            </g>
            <path d="M121.405405,50.022367 C127.459594,38.0012905 133.513379,19.5946909 133.513379,11.8941256 C133.513379,11.7064335 133.324324,11.5187415 133.135269,11.5187415 C123.676078,11.5187415 116.864463,53.9670947 112.135269,61.1041846 C114.216484,59.6018496 119.89216,52.4647597 121.405405,50.022367 M145.243243,7.94979718 C145.243243,9.45293093 145.054188,10.955266 145.054188,13.0210765 C145.054188,14.3357195 145.054188,15.4634692 144.865133,16.7777129 C143.162028,32.7431178 136.351217,47.9565565 125.756489,62.2307362 C123.297565,65.6123878 115.72973,74.4399042 111.378647,75.9430379 C110.810677,79.5111835 110.243109,83.8312953 110.243109,88.1514071 C110.243109,94.1619454 111.378647,98.6697493 115.72973,99.4209168 C134.270002,97.3543076 144.108108,77.633065 152.621219,67.1147229 C157.162162,67.6781984 156.594595,66.3635554 160,69.3690242 C156.973107,84.9578469 134.83757,109 119.32419,109 C117.810945,109 116.486352,108.811909 115.162162,108.436125 L114.405539,108.436125 C110.432164,108.436125 106.459594,107.121482 102.108108,103.552538 C98.8921601,99.2332247 97,93.7865613 97,87.5879317 C97,86.6494714 97.1890551,85.7090145 97.1890551,84.7701549 C98.1347329,71.2467433 102.675676,56.0329053 107.026759,43.0729692 C111.567702,29.3622649 117.810945,10.2040985 126.892026,3.25470062 C129.729864,1.75116753 133.324324,1 136.540272,1 C139.378512,1 141.837838,1.56347548 143.729596,2.69162448 C145.054188,4.38165159 145.243243,5.88398664 145.243243,7.94979718" id="Fill-4" fill="#043D47"></path>
            <path d="M162.296091,45.8139173 C158.330438,45.8139173 155.875643,43.5517893 153.609957,40.3485103 C154.176078,38.275494 154.931306,36.579499 155.686937,34.5068833 C157.763916,33.1879097 158.141731,33 160.407818,33 C164.750885,33 168.71694,34.6955943 170.416505,37.8984727 C169.849984,43.7400997 166.639559,45.8139173 162.296091,45.8139173 L162.296091,45.8139173 Z M160.596927,51.4668333 C165.1287,51.4668333 166.639559,53.3511387 166.639559,56.9322403 C166.639559,63.5275093 161.729569,73.8909883 160.219112,82.748786 C159.652991,85.574643 159.274775,88.2133917 159.274775,90.4747183 L159.274775,97.8236293 C159.841698,98.388961 162.485199,98.7655817 163.240829,98.7655817 C169.094755,98.7655817 181.180421,90.2860073 181.746943,84.821001 C183.2574,84.6326907 184.202139,84.4443803 185.523488,84.4443803 C187.978684,84.4443803 189.300033,84.821001 189.866956,85.574643 C190.43388,86.8948187 190.811293,87.4597497 191,89.5323653 C184.956966,100.085757 171.549148,108 157.953024,108 C147.944337,108 147,96.128035 147,89.1557447 C147,87.6484607 147.566923,85.574643 147.75563,83.8790487 C149.266088,72.1957947 154.365186,58.6278347 154.365186,53.539449 L160.596927,51.4668333 Z" id="Fill-6" fill="#043D47"></path>
            <path d="M219.607624,50 C223.957618,50 225.659335,51.5074139 228.4962,55.8378755 C230.009731,58.2861719 230.198721,60.9222443 230.198721,64.1240474 C230.198721,74.8581152 226.605493,88.0396786 226.605493,97.0777557 L226.605493,98.207215 C228.4962,97.2663326 246.085166,86.9098189 248.733041,84.8378755 C250.245768,84.6492987 251.191524,84.4611222 252.51526,84.4611222 C254.974145,84.4611222 256.297479,84.8378755 256.865254,85.5909819 C257.432627,86.9098189 257.81101,87.4747487 258,89.5454909 C251.002533,93.5004004 237.196188,108 224.713981,108 C223.011862,108 221.499135,107.811824 220.174997,107.246894 C214.879649,103.291984 213.17753,97.830862 213.17753,91.80481 C213.17753,81.6372736 217.905907,69.7737464 217.905907,62.2402805 C213.17753,62.2402805 200.506333,66.19519 198.992802,69.9615225 C194.45422,80.5062127 195.021593,93.5004004 190.482609,106.681964 C188.78049,107.43507 187.267763,107.811824 185.943625,107.811824 C182.350396,107.811824 181.594033,105.928857 178.757168,103.480161 L178,102.727054 C183.48474,88.792785 182.728377,73.3507013 186.321605,57.7216424 C188.402509,51.8841672 191.806345,51.3192374 192.373718,51.3192374 C193.697857,51.3192374 195.210583,51.3192374 196.534722,51.8841672 C198.425831,53.5785564 199.371587,55.8378755 199.371587,58.4747487 C204.099562,54.1434863 212.610157,50 219.607624,50" id="Fill-8" fill="#043D47"></path>
            <g id="Group-12" transform="translate(245.000000, 50.000000)">
                <mask id="mask-4" fill="white">
                    <use xlink:href="#path-3"></use>
                </mask>
                <g id="Clip-11"></g>
                <path d="M38.2049202,15.8993838 C38.2049202,13.0873162 36.5162234,9.89932297 32.7634309,9.14946486 C23.7570479,12.90035 20.1921543,17.0239716 16.2514628,23.9616541 C20.0046543,23.3987622 23.7570479,23.5865257 27.3219415,23.3987622 C33.1388298,22.8366676 37.2662234,22.0868095 38.2049202,16.6492419 L38.2049202,15.8993838 Z M26.0090426,34.0865324 C22.8191489,34.0865324 18.3155585,33.1493095 15.5010638,32.2120865 C14.9381649,33.1493095 14.7506649,34.2742959 14.7506649,35.5866473 C14.7506649,36.8997959 14.9381649,38.0243838 14.9381649,39.3367351 C14.9381649,45.8992892 19.0659574,48.5235932 26.0090426,48.5235932 L26.9469415,48.5235932 C30.5118351,48.3362284 33.5138298,47.3990054 36.1408245,45.8992892 L37.4541223,45.1490324 C43.2706117,41.9614378 48.5246011,38.7742419 54.5285904,33.5244378 C58.093484,30.5238095 65.5990691,19.6498703 70.1022606,17.5864649 C70.8530585,17.3991 71.4159574,17.2117351 71.6034574,17.2117351 C73.1042553,17.2117351 73.4796543,18.336323 74.4179521,20.0249986 C74.4179521,20.5870932 74.7933511,20.3997284 74.7933511,20.961823 C74.7933511,26.0246608 66.912367,35.7736135 63.9103723,38.7742419 C51.3390957,51.3368568 41.0194149,58.8362351 27.3219415,58.8362351 C15.3135638,58.8362351 5.93218085,55.2743095 2.1793883,46.4613838 C0.865691489,43.46235 0.302792553,40.0865932 0.302792553,37.0871608 C0.302792553,28.8367284 4.24308511,21.1495865 7.80837766,16.8370054 C9.49707447,14.7747959 12.3115691,10.8369446 14.3756649,8.77473514 C17.9405585,5.0246473 26.7594415,0.149174324 36.5162234,0.149174324 C37.8299202,0.149174324 38.9553191,0.336539189 40.268617,0.524302703 C46.2730053,1.83785 52.2769947,7.08765405 52.2769947,12.5240257 C52.2769947,26.9618838 40.081117,34.0865324 26.0090426,34.0865324 L26.0090426,34.0865324 Z" id="Fill-10" fill="#043D47" mask="url(#mask-4)"></path>
            </g>
        </g>
    </g>
</svg>